<svg width="414" height="141" fill="none" xmlns="http://www.w3.org/2000/svg"><path d="M221.134 44.481c-47.668 6.175-167.955 8.82-225.71-9.124v105.582H399.45C423.277 91.58 464.12 3.213 412.529 3.943c-64.489.913-120.949 31.414-191.395 40.538z" fill="#F5F5F5"/><path d="M404.069 2.075c6.297-.376 11.142.67 14.805 2.796 3.652 2.12 6.219 5.365 7.878 9.562 3.342 8.459 2.95 20.679.23 34.767-1.397 7.232-3.395 14.904-5.777 22.739h2.089c2.323-7.695 4.276-15.236 5.651-22.36 2.734-14.156 3.231-26.86-.333-35.881-1.796-4.543-4.631-8.176-8.735-10.557C415.784.765 410.52-.314 403.95.079c-32.312 1.93-62.251 11.136-92.779 21.355a3990.768 3990.768 0 0 0-10.394 3.5c-27.253 9.205-55.243 18.658-86.163 24.08-23.591 4.136-65.355 8.233-108.532 9.4-43.2 1.166-87.683-.605-116.77-8.15l-1.312-.34 1.005 22.015h2.002l-.886-19.405c29.388 7.338 73.432 9.029 116.015 7.878 43.244-1.168 85.11-5.27 108.824-9.428 31.079-5.45 59.218-14.954 86.458-24.155l.006-.002c3.474-1.174 6.933-2.342 10.382-3.497 30.523-10.216 60.241-19.342 92.263-21.255z" fill="#DDD"/></svg>