<svg width="450" height="141" fill="none" xmlns="http://www.w3.org/2000/svg"><path d="M216.289 96.457c47.668-6.174 167.956-8.82 225.711 9.124V0H37.974c-23.827 49.358-64.67 137.725-13.079 136.995 64.489-.912 120.949-31.414 191.394-40.538z" fill="#F5F5F5"/><path d="M33.355 138.863c-6.297.376-11.142-.669-14.805-2.795-3.652-2.12-6.22-5.366-7.878-9.562-3.343-8.459-2.95-20.679-.23-34.767 1.396-7.232 3.395-14.905 5.777-22.74h-2.09c-2.323 7.696-4.275 15.237-5.65 22.36-2.734 14.157-3.231 26.861.333 35.882 1.795 4.543 4.63 8.175 8.734 10.557 4.093 2.375 9.358 3.454 15.928 3.062 32.311-1.93 62.25-11.137 92.778-21.355 3.456-1.157 6.92-2.327 10.395-3.501 27.252-9.204 55.243-18.658 86.162-24.08 23.591-4.136 65.356-8.232 108.532-9.399 43.2-1.166 87.684.604 116.771 8.149l1.312.34L448.419 69h-2.002l.885 19.404c-29.387-7.337-73.432-9.028-116.015-7.878-43.243 1.168-85.11 5.27-108.823 9.429-31.08 5.45-59.219 14.954-86.459 24.155l-.006.002c-3.473 1.173-6.933 2.342-10.381 3.496-30.523 10.217-60.241 19.342-92.263 21.255z" fill="#DDD"/></svg>