<svg width="643" height="98" viewBox="0 0 643 98" fill="none" xmlns="http://www.w3.org/2000/svg">
<path fill-rule="evenodd" clip-rule="evenodd" d="M633 14.6331C626.225 23.439 619.532 27.7359 612.916 27.7359C606.3 27.7359 599.607 23.4431 592.832 14.6331C586.004 5.75782 579.095 1.21205 572.104 1.21205C565.112 1.21205 558.203 5.75782 551.375 14.6331C544.6 23.439 537.907 27.7359 531.291 27.7359C524.675 27.7359 517.982 23.4431 511.207 14.6331C504.379 5.75782 497.47 1.21205 490.479 1.21205C483.488 1.21205 476.578 5.75782 469.75 14.6331C462.975 23.439 456.282 27.7359 449.666 27.7359C443.051 27.7359 436.357 23.4431 429.582 14.6331C422.754 5.75782 415.845 1.21205 408.854 1.21205C401.863 1.21205 394.953 5.75782 388.125 14.6331C381.35 23.4431 374.657 27.7359 368.041 27.7359C361.425 27.7359 354.732 23.4431 347.961 14.6331C341.129 5.75782 334.22 1.21205 327.229 1.21205C320.237 1.21205 313.352 5.75782 306.5 14.6331C299.725 23.4431 293.032 27.7359 286.416 27.7359C279.8 27.7359 273.107 23.4431 266.336 14.6331C259.504 5.75782 252.595 1.21205 245.604 1.21205C238.612 1.21205 231.727 5.75782 224.875 14.6331C218.1 23.4431 211.407 27.7359 204.791 27.7359C198.175 27.7359 191.482 23.4431 184.711 14.6331C177.879 5.75782 170.97 1.21205 163.979 1.21205C156.988 1.21205 150.082 5.75782 143.25 14.6331C136.475 23.4431 129.782 27.7359 123.166 27.7359C116.55 27.7359 109.857 23.4431 103.086 14.6331C96.2544 5.75782 89.3448 1.21205 82.3537 1.21205C75.3625 1.21205 68.4774 5.75782 61.625 14.6331C54.8501 23.4431 48.1569 27.7359 41.5412 27.7359C34.9255 27.7359 28.2322 23.4431 21.4614 14.6331C14.6294 5.75782 7.71985 1.21205 0.72867 1.21205C-6.26251 1.21205 -13.168 5.75782 -20 14.6331V96.5918H633V14.6331Z" fill="white"/>
<path d="M29.7833 14.2619L30.1796 13.9571L29.7833 14.2619ZM70.5892 14.2619L70.9855 14.5668L70.5892 14.2619ZM152.201 14.2619L152.597 14.5668L152.201 14.2619ZM233.813 14.2619L234.209 14.5668L233.813 14.2619ZM633 14.6331H633.5V13.1632L632.604 14.3282L633 14.6331ZM592.832 14.6331L593.229 14.3283L593.229 14.3282L592.832 14.6331ZM551.375 14.6331L551.771 14.938V14.938L551.375 14.6331ZM511.207 14.6331L511.604 14.3283L511.604 14.3282L511.207 14.6331ZM469.75 14.6331L470.146 14.938V14.938L469.75 14.6331ZM429.582 14.6331L429.979 14.3283L429.979 14.3282L429.582 14.6331ZM388.125 14.6331L387.729 14.3282L387.729 14.3283L388.125 14.6331ZM347.961 14.6331L348.358 14.3284L348.358 14.3281L347.961 14.6331ZM306.5 14.6331L306.104 14.3275L306.104 14.3283L306.5 14.6331ZM266.336 14.6331L266.733 14.3284L266.733 14.3281L266.336 14.6331ZM224.875 14.6331L224.479 14.3275L224.479 14.3283L224.875 14.6331ZM184.711 14.6331L185.108 14.3284L185.108 14.3281L184.711 14.6331ZM143.25 14.6331L142.854 14.3281L142.854 14.3283L143.25 14.6331ZM103.086 14.6331L103.483 14.3284L103.483 14.3281L103.086 14.6331ZM61.625 14.6331L61.2292 14.3275L61.2286 14.3283L61.625 14.6331ZM21.4614 14.6331L21.8579 14.3284L21.8576 14.3281L21.4614 14.6331ZM-20 14.6331L-20.3962 14.3281L-20.5 14.463V14.6331H-20ZM-20 96.5918H-20.5V97.0918H-20V96.5918ZM633 96.5918V97.0918H633.5V96.5918H633ZM-10.6264 14.5668C-3.85983 5.77029 2.81199 1.5 9.38029 1.5C15.9486 1.5 22.6204 5.77029 29.387 14.5668L30.1796 13.9571C23.3441 5.07101 16.414 0.5 9.38029 0.5C2.34662 0.5 -4.58355 5.07101 -11.419 13.9571L-10.6264 14.5668ZM29.387 14.5668C36.2224 23.4529 43.1526 28.0239 50.1862 28.0239C57.2199 28.0239 64.1501 23.4529 70.9855 14.5668L70.1929 13.9571C63.4264 22.7536 56.7546 27.0239 50.1862 27.0239C43.6179 27.0239 36.9461 22.7536 30.1796 13.9571L29.387 14.5668ZM70.9855 14.5668C77.7521 5.77029 84.4239 1.5 90.9922 1.5C97.5605 1.5 104.232 5.77029 110.999 14.5668L111.792 13.9571C104.956 5.07101 98.0259 0.5 90.9922 0.5C83.9585 0.5 77.0284 5.07101 70.1929 13.9571L70.9855 14.5668ZM110.999 14.5668C117.834 23.4529 124.764 28.0239 131.798 28.0239C138.832 28.0239 145.762 23.4529 152.597 14.5668L151.805 13.9571C145.038 22.7536 138.366 27.0239 131.798 27.0239C125.23 27.0239 118.558 22.7536 111.792 13.9571L110.999 14.5668ZM152.597 14.5668C159.364 5.77029 166.036 1.5 172.604 1.5C179.172 1.5 185.844 5.77029 192.611 14.5668L193.403 13.9571C186.568 5.07101 179.638 0.5 172.604 0.5C165.57 0.5 158.64 5.07101 151.805 13.9571L152.597 14.5668ZM192.611 14.5668C199.446 23.4529 206.376 28.0239 213.41 28.0239C220.444 28.0239 227.374 23.4529 234.209 14.5668L233.417 13.9571C226.65 22.7536 219.978 27.0239 213.41 27.0239C206.842 27.0239 200.17 22.7536 193.403 13.9571L192.611 14.5668ZM234.209 14.5668C240.976 5.77029 247.648 1.5 254.216 1.5C260.784 1.5 267.456 5.77029 274.223 14.5668L275.015 13.9571C268.18 5.07101 261.25 0.5 254.216 0.5C247.182 0.5 240.252 5.07101 233.417 13.9571L234.209 14.5668ZM274.223 14.5668C281.058 23.4529 287.988 28.0239 295.022 28.0239C302.056 28.0239 308.986 23.4529 315.821 14.5668L315.029 13.9571C308.262 22.7536 301.59 27.0239 295.022 27.0239C288.454 27.0239 281.782 22.7536 275.015 13.9571L274.223 14.5668ZM315.821 14.5668C322.588 5.77029 329.26 1.5 335.828 1.5C342.396 1.5 349.068 5.77029 355.835 14.5668L356.627 13.9571C349.792 5.07101 342.862 0.5 335.828 0.5C328.794 0.5 321.864 5.07101 315.029 13.9571L315.821 14.5668ZM355.835 14.5668C362.67 23.4529 369.6 28.0239 376.634 28.0239C383.668 28.0239 390.598 23.4529 397.433 14.5668L396.641 13.9571C389.874 22.7536 383.202 27.0239 376.634 27.0239C370.066 27.0239 363.394 22.7536 356.627 13.9571L355.835 14.5668ZM397.433 14.5668C404.2 5.77029 410.872 1.5 417.44 1.5C424.008 1.5 430.68 5.77029 437.447 14.5668L438.239 13.9571C431.404 5.07101 424.474 0.5 417.44 0.5C410.406 0.5 403.476 5.07101 396.641 13.9571L397.433 14.5668ZM437.447 14.5668C444.282 23.4529 451.212 28.0239 458.246 28.0239C465.28 28.0239 472.21 23.4529 479.045 14.5668L478.253 13.9571C471.486 22.7536 464.814 27.0239 458.246 27.0239C451.678 27.0239 445.006 22.7536 438.239 13.9571L437.447 14.5668ZM479.045 14.5668C485.812 5.77029 492.484 1.5 499.052 1.5C505.62 1.5 512.292 5.77029 519.058 14.5668L519.851 13.9571C513.016 5.07101 506.085 0.5 499.052 0.5C492.018 0.5 485.088 5.07101 478.253 13.9571L479.045 14.5668ZM519.058 14.5668C525.894 23.4529 532.824 28.0239 539.858 28.0239C546.891 28.0239 553.822 23.4529 560.657 14.5668L559.864 13.9571C553.098 22.7536 546.426 27.0239 539.858 27.0239C533.289 27.0239 526.618 22.7536 519.851 13.9571L519.058 14.5668ZM560.657 14.5668C567.424 5.77029 574.095 1.5 580.664 1.5C587.232 1.5 593.904 5.77029 600.67 14.5668L601.463 13.9571C594.628 5.07101 587.697 0.5 580.664 0.5C573.63 0.5 566.7 5.07101 559.864 13.9571L560.657 14.5668ZM600.67 14.5668C607.506 23.4529 614.436 28.0239 621.47 28.0239C628.503 28.0239 635.433 23.4529 642.269 14.5668L641.476 13.9571C634.71 22.7536 628.038 27.0239 621.47 27.0239C614.901 27.0239 608.229 22.7536 601.463 13.9571L600.67 14.5668ZM632.604 14.3282C625.863 23.0893 619.299 27.2359 612.916 27.2359V28.2359C619.765 28.2359 626.587 23.7888 633.396 14.938L632.604 14.3282ZM612.916 27.2359C606.533 27.2359 599.969 23.0933 593.229 14.3283L592.436 14.9379C599.245 23.793 606.068 28.2359 612.916 28.2359V27.2359ZM593.229 14.3282C586.366 5.40823 579.328 0.712046 572.104 0.712046V1.71205C578.862 1.71205 585.643 6.10742 592.436 14.938L593.229 14.3282ZM572.104 0.712046C564.88 0.712046 557.841 5.40823 550.979 14.3282L551.771 14.938C558.565 6.10742 565.345 1.71205 572.104 1.71205V0.712046ZM550.979 14.3282C544.238 23.0893 537.674 27.2359 531.291 27.2359V28.2359C538.14 28.2359 544.962 23.7888 551.771 14.938L550.979 14.3282ZM531.291 27.2359C524.908 27.2359 518.344 23.0933 511.604 14.3283L510.811 14.9379C517.62 23.793 524.443 28.2359 531.291 28.2359V27.2359ZM511.604 14.3282C504.741 5.40823 497.703 0.712046 490.479 0.712046V1.71205C497.237 1.71205 504.018 6.10742 510.811 14.938L511.604 14.3282ZM490.479 0.712046C483.255 0.712046 476.216 5.40823 469.354 14.3282L470.146 14.938C476.94 6.10742 483.72 1.71205 490.479 1.71205V0.712046ZM469.354 14.3282C462.613 23.0893 456.049 27.2359 449.666 27.2359V28.2359C456.515 28.2359 463.337 23.7888 470.146 14.938L469.354 14.3282ZM449.666 27.2359C443.283 27.2359 436.719 23.0933 429.979 14.3283L429.186 14.9379C435.995 23.793 442.818 28.2359 449.666 28.2359V27.2359ZM429.979 14.3282C423.116 5.40823 416.078 0.712046 408.854 0.712046V1.71205C415.612 1.71205 422.393 6.10742 429.186 14.938L429.979 14.3282ZM408.854 0.712046C401.63 0.712046 394.591 5.40823 387.729 14.3282L388.521 14.938C395.315 6.10742 402.095 1.71205 408.854 1.71205V0.712046ZM387.729 14.3283C380.988 23.0933 374.424 27.2359 368.041 27.2359V28.2359C374.889 28.2359 381.712 23.7929 388.521 14.9379L387.729 14.3283ZM368.041 27.2359C361.658 27.2359 355.094 23.0933 348.358 14.3284L347.565 14.9378C354.371 23.7929 361.193 28.2359 368.041 28.2359V27.2359ZM348.358 14.3281C341.491 5.40822 334.453 0.712046 327.229 0.712046V1.71205C333.987 1.71205 340.768 6.10743 347.565 14.9381L348.358 14.3281ZM327.229 0.712046C320.004 0.712046 312.99 5.40875 306.104 14.3275L306.896 14.9387C313.715 6.1069 320.471 1.71205 327.229 1.71205V0.712046ZM306.104 14.3283C299.363 23.0933 292.799 27.2359 286.416 27.2359V28.2359C293.264 28.2359 300.087 23.7929 306.896 14.9379L306.104 14.3283ZM286.416 27.2359C280.033 27.2359 273.469 23.0933 266.733 14.3284L265.94 14.9378C272.745 23.7929 279.568 28.2359 286.416 28.2359V27.2359ZM266.733 14.3281C259.866 5.40822 252.828 0.712046 245.604 0.712046V1.71205C252.362 1.71205 259.143 6.10743 265.94 14.9381L266.733 14.3281ZM245.604 0.712046C238.379 0.712046 231.365 5.40875 224.479 14.3275L225.271 14.9387C232.09 6.1069 238.846 1.71205 245.604 1.71205V0.712046ZM224.479 14.3283C217.738 23.0933 211.174 27.2359 204.791 27.2359V28.2359C211.639 28.2359 218.462 23.793 225.271 14.9379L224.479 14.3283ZM204.791 27.2359C198.408 27.2359 191.844 23.0933 185.108 14.3284L184.315 14.9378C191.12 23.7929 197.943 28.2359 204.791 28.2359V27.2359ZM185.108 14.3281C178.241 5.40822 171.203 0.712046 163.979 0.712046V1.71205C170.737 1.71205 177.518 6.10743 184.315 14.9381L185.108 14.3281ZM163.979 0.712046C156.755 0.712046 149.72 5.40832 142.854 14.3281L143.646 14.9381C150.444 6.10733 157.22 1.71205 163.979 1.71205V0.712046ZM142.854 14.3283C136.113 23.0933 129.549 27.2359 123.166 27.2359V28.2359C130.014 28.2359 136.837 23.7929 143.646 14.9379L142.854 14.3283ZM123.166 27.2359C116.783 27.2359 110.219 23.0933 103.483 14.3284L102.69 14.9378C109.495 23.7929 116.318 28.2359 123.166 28.2359V27.2359ZM103.483 14.3281C96.6163 5.40822 89.5775 0.712046 82.3537 0.712046V1.71205C89.1122 1.71205 95.8925 6.10743 102.69 14.9381L103.483 14.3281ZM82.3537 0.712046C75.1294 0.712046 68.1152 5.40875 61.2292 14.3275L62.0208 14.9387C68.8396 6.1069 75.5956 1.71205 82.3537 1.71205V0.712046ZM61.2286 14.3283C54.4884 23.0933 47.9243 27.2359 41.5412 27.2359V28.2359C48.3894 28.2359 55.2118 23.7929 62.0214 14.9379L61.2286 14.3283ZM41.5412 27.2359C35.158 27.2359 28.594 23.0933 21.8579 14.3284L21.065 14.9378C27.8705 23.7929 34.6929 28.2359 41.5412 28.2359V27.2359ZM21.8576 14.3281C14.9913 5.40822 7.95255 0.712046 0.72867 0.712046V1.71205C7.48715 1.71205 14.2675 6.10743 21.0652 14.9381L21.8576 14.3281ZM0.72867 0.712046C-6.49529 0.712046 -13.5299 5.40832 -20.3962 14.3281L-19.6038 14.9381C-12.806 6.10733 -6.02974 1.71205 0.72867 1.71205V0.712046ZM-20.5 14.6331V96.5918H-19.5V14.6331H-20.5ZM-20 97.0918H633V96.0918H-20V97.0918ZM633.5 96.5918V14.6331H632.5V96.5918H633.5Z" fill="white"/>
</svg>
