<svg width="100" height="20" viewBox="0 0 100 20" fill="none" xmlns="http://www.w3.org/2000/svg">
<path d="M90 4.31083L91.9458 8.325L96.3667 8.935L93.1492 12.0267L93.9342 16.4183L90 14.315L86.0658 16.4192L86.8508 12.0275L83.6333 8.93583L88.0542 8.325L90 4.31083ZM90 0.489167L86.9433 6.79583L80 7.755L85.0533 12.6117L83.82 19.5108L90 16.205L96.18 19.51L94.9467 12.6108L100 7.755L93.0567 6.79667L90 0.489167Z" fill="#1E1E1E"/>
<path d="M10 4.01822L11.9458 8.23885L16.3667 8.88022L13.1492 12.1309L13.9342 16.7484L10 14.5369L6.06583 16.7493L6.85083 12.1318L3.63333 8.8811L8.05417 8.23885L10 4.01822ZM10 0L6.94333 6.63103L0 7.63953L5.05333 12.746L3.82 20L10 16.5241L16.18 19.9991L14.9467 12.7451L20 7.63953L13.0567 6.63191L10 0Z" fill="#F1CE50"/>
<path d="M10 4.01822L11.9458 8.23885L16.3667 8.88022L13.1492 12.1309L13.9342 16.7484L10 14.5369L6.06583 16.7493L6.85083 12.1318L3.63333 8.8811L8.05417 8.23885L10 4.01822Z" fill="#F1CE50"/>
<path d="M30 4.01822L31.9458 8.23885L36.3667 8.88022L33.1492 12.1309L33.9342 16.7484L30 14.5369L26.0658 16.7493L26.8508 12.1318L23.6333 8.8811L28.0542 8.23885L30 4.01822ZM30 0L26.9433 6.63103L20 7.63953L25.0533 12.746L23.82 20L30 16.5241L36.18 19.9991L34.9467 12.7451L40 7.63953L33.0567 6.63191L30 0Z" fill="#F1CE50"/>
<path d="M30 4.01822L31.9458 8.23885L36.3667 8.88022L33.1492 12.1309L33.9342 16.7484L30 14.5369L26.0658 16.7493L26.8508 12.1318L23.6333 8.8811L28.0542 8.23885L30 4.01822Z" fill="#F1CE50"/>
<path d="M50 4.01822L51.9458 8.23885L56.3667 8.88022L53.1492 12.1309L53.9342 16.7484L50 14.5369L46.0658 16.7493L46.8508 12.1318L43.6333 8.8811L48.0542 8.23885L50 4.01822ZM50 0L46.9433 6.63103L40 7.63953L45.0533 12.746L43.82 20L50 16.5241L56.18 19.9991L54.9467 12.7451L60 7.63953L53.0567 6.63191L50 0Z" fill="#F1CE50"/>
<path d="M50 4.01822L51.9458 8.23885L56.3667 8.88022L53.1492 12.1309L53.9342 16.7484L50 14.5369L46.0658 16.7493L46.8508 12.1318L43.6333 8.8811L48.0542 8.23885L50 4.01822Z" fill="#F1CE50"/>
<path d="M70 4.01822L71.9458 8.23885L76.3667 8.88022L73.1492 12.1309L73.9342 16.7484L70 14.5369L66.0658 16.7493L66.8508 12.1318L63.6333 8.8811L68.0542 8.23885L70 4.01822ZM70 0L66.9433 6.63103L60 7.63953L65.0533 12.746L63.82 20L70 16.5241L76.18 19.9991L74.9467 12.7451L80 7.63953L73.0567 6.63191L70 0Z" fill="#F1CE50"/>
<path d="M70 4.01822L71.9458 8.23885L76.3667 8.88022L73.1492 12.1309L73.9342 16.7484L70 14.5369L66.0658 16.7493L66.8508 12.1318L63.6333 8.8811L68.0542 8.23885L70 4.01822Z" fill="#F1CE50"/>
</svg>
