<svg width="100" height="20" fill="none" xmlns="http://www.w3.org/2000/svg"><path d="m10 0 3.057 6.307L20 7.266l-5.053 4.857 1.233 6.899L10 15.716l-6.18 3.306 1.233-6.9L0 7.267l6.943-.96L10 0zM30 0l3.057 6.307L40 7.266l-5.053 4.857 1.233 6.899L30 15.716l-6.18 3.306 1.233-6.9L20 7.267l6.943-.96L30 0zM50 0l3.057 6.307L60 7.266l-5.053 4.857 1.233 6.899L50 15.716l-6.18 3.306 1.233-6.9L40 7.267l6.943-.96L50 0zM70 0l3.057 6.307L80 7.266l-5.053 4.857 1.233 6.899L70 15.716l-6.18 3.306 1.233-6.9L60 7.267l6.943-.96L70 0z" fill="#F1CE50"/><path d="m90 3.822 1.946 4.014 4.42.61-3.217 3.091.785 4.392L90 13.826l-3.934 2.104.785-4.392-3.218-3.091 4.421-.611L90 3.822zM90 0l-3.057 6.307L80 7.266l5.053 4.857-1.233 6.899L90 15.716l6.18 3.305-1.233-6.9L100 7.267l-6.943-.958L90 0z" fill="#fff"/></svg>