<svg id="Layer_1" data-name="Layer 1" xmlns="http://www.w3.org/2000/svg" viewBox="0 0 1728 256"><defs><style>.cls-1{fill:#fff;}.cls-2{fill:none;stroke:#fff;stroke-miterlimit:10;}</style></defs><path class="cls-1" d="M1730,40.59c-17.07,21.13-34,31.45-50.64,31.45-17.55,0-35.31-11.41-53.29-34.82-18.11-23.58-36.45-35.66-55-35.66s-36.88,12.08-55,35.66c-18,23.4-35.73,34.82-53.29,34.82s-35.31-11.41-53.29-34.82c-18.12-23.58-36.45-35.66-55-35.66s-36.88,12.08-55,35.66c-18,23.4-35.74,34.82-53.29,34.82s-35.31-11.41-53.29-34.82c-18.12-23.58-36.45-35.66-55-35.66s-36.88,12.08-55,35.66c-18,23.41-35.74,34.82-53.29,34.82S994.3,60.63,976.34,37.22c-18.13-23.58-36.46-35.66-55-35.66s-36.82,12.08-55,35.66C848.35,60.63,830.59,72,813,72s-35.32-11.41-53.28-34.82c-18.13-23.58-36.46-35.66-55-35.66s-36.82,12.08-55,35.66C631.77,60.63,614,72,596.46,72s-35.32-11.41-53.28-34.82c-18.13-23.58-36.47-35.66-55-35.66s-36.87,12.08-55,35.66C415.19,60.63,397.43,72,379.87,72s-35.31-11.41-53.28-34.82c-18.12-23.58-36.46-35.66-55-35.66s-36.82,12.08-55,35.66C198.6,60.63,180.85,72,163.29,72S128,60.63,110,37.22C91.88,13.64,73.55,1.56,55,1.56S18.13,13.64,0,37.22V255H1730Z"/><path class="cls-2" d="M23.82,36.24q54.13-70.48,108.27,0t108.28,0q54.13-70.48,108.27,0t108.27,0q54.15-70.48,108.28,0t108.27,0q54.13-70.48,108.27,0t108.28,0q54.13-70.48,108.27,0t108.27,0q54.15-70.48,108.28,0t108.27,0q54.14-70.48,108.28,0t108.27,0q54.13-70.48,108.27,0,41,53.43,82.08,25.85m-50.64,10c16.69,0,33.57-10.32,50.64-31.45V255H0V37.22C18.13,13.64,36.45,1.56,55,1.56s36.88,12.08,55,35.66C128,60.63,145.74,72,163.29,72s35.31-11.41,53.29-34.82c18.18-23.58,36.45-35.66,55-35.66s36.89,12.08,55,35.66C344.56,60.63,362.32,72,379.87,72s35.32-11.41,53.29-34.82c18.13-23.58,36.45-35.66,55-35.66s36.89,12.08,55,35.66C561.14,60.63,578.9,72,596.46,72s35.31-11.41,53.28-34.82c18.19-23.58,36.46-35.66,55-35.66s36.88,12.08,55,35.66C777.72,60.63,795.48,72,813,72s35.31-11.41,53.29-34.82c18.18-23.58,36.45-35.66,55-35.66s36.88,12.08,55,35.66c18,23.41,35.72,34.82,53.28,34.82s35.31-11.41,53.29-34.82c18.12-23.58,36.45-35.66,55-35.66s36.88,12.08,55,35.66c18,23.41,35.74,34.82,53.29,34.82s35.31-11.42,53.29-34.82c18.12-23.58,36.45-35.66,55-35.66s36.88,12.08,55,35.66c18,23.41,35.74,34.82,53.29,34.82s35.32-11.42,53.29-34.82c18.12-23.58,36.45-35.66,55-35.66s36.89,12.08,55,35.66C1644.05,60.63,1661.81,72,1679.36,72Z"/></svg>