<svg width="649" height="98" fill="none" xmlns="http://www.w3.org/2000/svg"><path fill-rule="evenodd" clip-rule="evenodd" d="M654 14.633c-6.775 8.806-13.468 13.103-20.084 13.103s-13.309-4.293-20.084-13.103c-6.828-8.875-13.737-13.42-20.728-13.42-6.992-.001-13.901 4.545-20.729 13.42-6.775 8.806-13.468 13.103-20.084 13.103s-13.309-4.293-20.084-13.103c-6.828-8.875-13.737-13.42-20.728-13.42-6.991-.001-13.901 4.545-20.729 13.42-6.775 8.806-13.468 13.103-20.084 13.103-6.615 0-13.309-4.293-20.084-13.103-6.828-8.875-13.737-13.42-20.728-13.42-6.991-.001-13.901 4.545-20.729 13.42-6.775 8.81-13.468 13.103-20.084 13.103s-13.309-4.293-20.08-13.103c-6.832-8.875-13.741-13.42-20.732-13.42-6.992-.001-13.877 4.545-20.729 13.42-6.775 8.81-13.468 13.103-20.084 13.103s-13.309-4.293-20.08-13.103c-6.832-8.875-13.741-13.42-20.732-13.42-6.992-.001-13.877 4.545-20.729 13.42-6.775 8.81-13.468 13.103-20.084 13.103s-13.309-4.293-20.08-13.103c-6.832-8.875-13.741-13.42-20.732-13.42-6.991-.001-13.897 4.545-20.729 13.42-6.775 8.81-13.468 13.103-20.084 13.103s-13.309-4.293-20.08-13.103c-6.832-8.875-13.741-13.42-20.732-13.42-6.992-.001-13.877 4.545-20.729 13.42-6.775 8.81-13.468 13.103-20.084 13.103-6.615 0-13.309-4.293-20.08-13.103C35.63 5.758 28.72 1.213 21.73 1.213 14.738 1.211 7.832 5.757 1 14.632v81.959h653V14.633z" fill="#25273E"/><path d="M9.977 14.262c13.602-17.683 27.204-17.683 40.806 0 13.602 17.683 27.204 17.683 40.806 0 13.602-17.683 27.204-17.683 40.806 0 13.602 17.683 27.204 17.683 40.806 0 13.602-17.683 27.204-17.683 40.806 0 13.602 17.683 27.204 17.683 40.806 0 13.602-17.683 27.204-17.683 40.806 0 13.602 17.683 27.204 17.683 40.806 0 13.602-17.683 27.204-17.683 40.806 0 13.602 17.683 27.204 17.683 40.806 0 13.602-17.683 27.204-17.683 40.806 0 13.602 17.683 27.204 17.683 40.806 0 13.602-17.683 27.204-17.683 40.806 0 13.602 17.683 27.204 17.683 40.806 0 13.602-17.683 27.204-17.683 40.806 0 13.602 17.683 27.204 17.683 40.806 0m-8.873.371c-6.775 8.806-13.468 13.103-20.084 13.103s-13.309-4.293-20.084-13.103c-6.828-8.875-13.737-13.42-20.728-13.42-6.991-.001-13.901 4.545-20.729 13.42-6.775 8.806-13.468 13.103-20.084 13.103s-13.309-4.293-20.084-13.103c-6.828-8.875-13.737-13.42-20.728-13.42-6.991-.001-13.901 4.545-20.729 13.42-6.775 8.806-13.468 13.103-20.084 13.103s-13.309-4.293-20.084-13.103c-6.828-8.875-13.737-13.42-20.728-13.42-6.991-.001-13.901 4.545-20.729 13.42-6.775 8.81-13.468 13.103-20.084 13.103s-13.309-4.293-20.08-13.103c-6.832-8.875-13.741-13.42-20.732-13.42-6.992-.001-13.877 4.545-20.729 13.42-6.775 8.81-13.468 13.103-20.084 13.103s-13.309-4.293-20.08-13.103c-6.832-8.875-13.741-13.42-20.732-13.42-6.992-.001-13.877 4.545-20.729 13.42-6.775 8.81-13.468 13.103-20.084 13.103s-13.309-4.293-20.08-13.103c-6.832-8.875-13.741-13.42-20.732-13.42-6.991-.001-13.897 4.545-20.729 13.42-6.775 8.81-13.468 13.103-20.084 13.103s-13.309-4.293-20.08-13.103c-6.832-8.875-13.741-13.42-20.732-13.42-6.992-.001-13.877 4.545-20.729 13.42-6.775 8.81-13.468 13.103-20.084 13.103-6.615 0-13.309-4.293-20.08-13.103C35.63 5.758 28.72 1.213 21.73 1.213 14.738 1.211 7.832 5.757 1 14.632v81.959h653V14.633z" stroke="#25273E" stroke-miterlimit="10"/></svg>