<svg width="661" height="98" fill="none" xmlns="http://www.w3.org/2000/svg"><path fill-rule="evenodd" clip-rule="evenodd" d="M8.873 82.959c6.775-8.806 13.468-13.103 20.083-13.103 6.616 0 13.31 4.293 20.084 13.103 6.828 8.875 13.738 13.42 20.729 13.42s13.9-4.545 20.729-13.42c6.774-8.806 13.468-13.103 20.083-13.103 6.616 0 13.309 4.293 20.084 13.103 6.828 8.875 13.738 13.42 20.729 13.42s13.901-4.545 20.729-13.42c6.774-8.806 13.468-13.103 20.083-13.103 6.616 0 13.309 4.293 20.084 13.103 6.828 8.875 13.738 13.42 20.729 13.42s13.901-4.545 20.729-13.42c6.774-8.81 13.468-13.103 20.083-13.103 6.616 0 13.309 4.293 20.08 13.103 6.832 8.875 13.742 13.42 20.733 13.42s13.876-4.545 20.729-13.42c6.774-8.81 13.468-13.103 20.083-13.103 6.616 0 13.309 4.293 20.08 13.103 6.832 8.875 13.742 13.42 20.733 13.42s13.876-4.545 20.729-13.42c6.774-8.81 13.468-13.103 20.083-13.103 6.616 0 13.309 4.293 20.08 13.103 6.832 8.875 13.742 13.42 20.733 13.42s13.897-4.545 20.729-13.42c6.774-8.81 13.468-13.103 20.083-13.103 6.616 0 13.309 4.293 20.08 13.103 6.832 8.875 13.742 13.42 20.733 13.42s13.876-4.545 20.729-13.42c6.774-8.81 13.468-13.103 20.083-13.103 6.616 0 13.309 4.293 20.08 13.103 6.832 8.875 13.742 13.42 20.733 13.42s13.897-4.545 20.729-13.42V1h-653V82.96z" fill="#25273E"/><path d="M652.895 83.33c-13.602 17.682-27.204 17.682-40.806 0-13.602-17.683-27.204-17.683-40.806 0-13.602 17.682-27.204 17.682-40.806 0-13.602-17.683-27.204-17.683-40.806 0-13.602 17.682-27.204 17.682-40.806 0-13.602-17.683-27.204-17.683-40.805 0-13.602 17.682-27.204 17.682-40.806 0-13.602-17.683-27.204-17.683-40.806 0-13.602 17.682-27.204 17.682-40.806 0-13.602-17.683-27.204-17.683-40.806 0-13.602 17.682-27.204 17.682-40.806 0-13.602-17.683-27.204-17.683-40.806 0-13.602 17.682-27.204 17.682-40.806 0-13.602-17.683-27.204-17.683-40.806 0-13.602 17.682-27.204 17.682-40.806 0C27.204 65.647 13.602 65.647 0 83.33m8.873-.371c6.774-8.806 13.468-13.103 20.083-13.103 6.616 0 13.31 4.293 20.084 13.103 6.828 8.875 13.738 13.42 20.729 13.42s13.9-4.545 20.729-13.42c6.774-8.806 13.468-13.103 20.083-13.103 6.616 0 13.309 4.293 20.084 13.103 6.828 8.875 13.738 13.42 20.729 13.42s13.901-4.545 20.729-13.42c6.774-8.806 13.468-13.103 20.083-13.103 6.616 0 13.309 4.293 20.084 13.103 6.828 8.875 13.738 13.42 20.729 13.42s13.901-4.545 20.729-13.42c6.774-8.81 13.468-13.103 20.083-13.103 6.616 0 13.309 4.293 20.08 13.103 6.832 8.875 13.742 13.42 20.733 13.42s13.876-4.545 20.729-13.42c6.774-8.81 13.468-13.103 20.083-13.103 6.616 0 13.309 4.293 20.08 13.103 6.832 8.875 13.742 13.42 20.733 13.42s13.876-4.545 20.729-13.42c6.774-8.81 13.468-13.103 20.083-13.103 6.616 0 13.309 4.293 20.08 13.103 6.832 8.875 13.742 13.42 20.733 13.42s13.897-4.545 20.729-13.42c6.774-8.81 13.468-13.103 20.083-13.103 6.616 0 13.309 4.293 20.08 13.103 6.832 8.875 13.742 13.42 20.733 13.42s13.876-4.545 20.729-13.42c6.774-8.81 13.468-13.103 20.083-13.103 6.616 0 13.309 4.293 20.08 13.103 6.832 8.875 13.742 13.42 20.733 13.42s13.897-4.545 20.729-13.42V1h-653V82.96z" stroke="#25273E" stroke-miterlimit="10"/></svg>