<svg width="656" height="98" fill="none" xmlns="http://www.w3.org/2000/svg"><path fill-rule="evenodd" clip-rule="evenodd" d="M1.873 82.959c6.774-8.806 13.468-13.103 20.083-13.103 6.616 0 13.31 4.293 20.084 13.103 6.828 8.875 13.738 13.42 20.729 13.42s13.9-4.545 20.729-13.42c6.774-8.806 13.468-13.103 20.083-13.103 6.616 0 13.309 4.293 20.084 13.103 6.828 8.875 13.738 13.42 20.729 13.42s13.901-4.545 20.729-13.42c6.774-8.806 13.468-13.103 20.083-13.103 6.616 0 13.309 4.293 20.084 13.103 6.828 8.875 13.738 13.42 20.729 13.42s13.901-4.545 20.729-13.42c6.774-8.81 13.468-13.103 20.083-13.103 6.616 0 13.309 4.293 20.08 13.103 6.832 8.875 13.742 13.42 20.733 13.42s13.876-4.545 20.729-13.42c6.774-8.81 13.468-13.103 20.083-13.103 6.616 0 13.309 4.293 20.08 13.103 6.832 8.875 13.742 13.42 20.733 13.42s13.876-4.545 20.729-13.42c6.774-8.81 13.468-13.103 20.083-13.103 6.616 0 13.309 4.293 20.08 13.103 6.832 8.875 13.742 13.42 20.733 13.42s13.897-4.545 20.729-13.42c6.774-8.81 13.468-13.103 20.083-13.103 6.616 0 13.309 4.293 20.08 13.103 6.832 8.875 13.742 13.42 20.733 13.42s13.876-4.545 20.729-13.42c6.774-8.81 13.468-13.103 20.083-13.103 6.616 0 13.309 4.293 20.08 13.103 6.832 8.875 13.742 13.42 20.733 13.42s13.897-4.545 20.729-13.42V1h-653V82.96z" fill="#fff"/><path d="m605.089 83.33-.396.305.396-.305zm-40.806 0-.396-.305.396.305zm-81.612 0-.396-.305.396.305zm-81.611 0-.397-.305.397.305zM1.873 82.959h-.5v1.47l.896-1.165-.396-.305zm40.167 0-.396.304.396-.304zm41.458 0-.397-.305.397.305zm40.167 0-.396.304.396-.304zm41.458 0-.397-.305.397.305zm40.167 0-.396.304.396-.304zm41.458 0 .396.305-.396-.305zm40.163 0-.396.304.396-.304zm41.462 0 .395.305h.001l-.396-.305zm40.163 0-.396.304.396-.304zm41.462 0 .395.305h.001l-.396-.305zm40.163 0-.396.304.396-.304zm41.462 0 .396.305-.396-.305zm40.163 0-.396.304.396-.304zm41.462 0 .395.305h.001l-.396-.305zm40.163 0-.396.304.396-.304zm41.462 0 .396.305.104-.135v-.17h-.5zm0-81.959h.5V.5h-.5V1zm-653 0V.5h-.5V1h.5zm643.626 82.025c-6.767 8.796-13.438 13.067-20.007 13.067-6.568 0-13.24-4.27-20.006-13.067l-.793.61c6.835 8.886 13.766 13.457 20.799 13.457 7.034 0 13.964-4.571 20.8-13.457l-.793-.61zm-40.013 0c-6.836-8.886-13.766-13.457-20.8-13.457-7.033 0-13.964 4.57-20.799 13.457l.793.61c6.766-8.797 13.438-13.067 20.006-13.067 6.569 0 13.24 4.27 20.007 13.067l.793-.61zm-41.599 0c-6.767 8.796-13.438 13.067-20.007 13.067-6.568 0-13.24-4.27-20.006-13.067l-.793.61c6.835 8.886 13.766 13.457 20.799 13.457 7.034 0 13.964-4.571 20.8-13.457l-.793-.61zm-40.013 0c-6.836-8.886-13.766-13.457-20.8-13.457-7.033 0-13.963 4.57-20.799 13.457l.793.61c6.766-8.797 13.438-13.067 20.006-13.067 6.569 0 13.241 4.27 20.007 13.067l.793-.61zm-41.599 0c-6.766 8.796-13.438 13.067-20.007 13.067-6.568 0-13.24-4.27-20.006-13.067l-.793.61c6.836 8.886 13.766 13.457 20.799 13.457 7.034 0 13.964-4.571 20.8-13.457l-.793-.61zm-40.013 0c-6.836-8.886-13.766-13.457-20.8-13.457-7.033 0-13.963 4.571-20.799 13.457l.793.61c6.766-8.797 13.438-13.067 20.006-13.067 6.569 0 13.241 4.27 20.007 13.067l.793-.61zm-41.599 0c-6.766 8.796-13.438 13.067-20.006 13.067-6.569 0-13.241-4.27-20.007-13.067l-.793.61c6.836 8.886 13.766 13.457 20.8 13.457 7.033 0 13.963-4.571 20.799-13.457l-.793-.61zm-40.013 0c-6.836-8.886-13.766-13.457-20.799-13.457-7.034 0-13.964 4.571-20.8 13.457l.793.61c6.766-8.797 13.438-13.067 20.007-13.067 6.568 0 13.24 4.27 20.006 13.067l.793-.61zm-41.599 0c-6.766 8.796-13.438 13.067-20.006 13.067-6.569 0-13.24-4.27-20.007-13.067l-.793.61c6.836 8.886 13.766 13.457 20.8 13.457 7.033 0 13.963-4.571 20.799-13.457l-.793-.61zm-40.013 0c-6.835-8.886-13.766-13.457-20.799-13.457-7.034 0-13.964 4.571-20.8 13.457l.793.61c6.767-8.797 13.438-13.067 20.007-13.067 6.568 0 13.24 4.27 20.006 13.067l.793-.61zm-41.599 0c-6.766 8.796-13.438 13.067-20.006 13.067-6.569 0-13.24-4.27-20.007-13.067l-.793.61c6.836 8.886 13.766 13.457 20.8 13.457 7.033 0 13.964-4.571 20.799-13.457l-.793-.61zm-40.013 0c-6.835-8.886-13.766-13.457-20.799-13.457-7.034 0-13.964 4.571-20.8 13.457l.793.61c6.767-8.797 13.438-13.067 20.007-13.067 6.568 0 13.24 4.27 20.006 13.067l.793-.61zm-41.599 0c-6.766 8.797-13.438 13.067-20.006 13.067-6.569 0-13.24-4.27-20.007-13.067l-.793.61c6.836 8.886 13.766 13.457 20.8 13.457 7.033 0 13.964-4.571 20.799-13.457l-.793-.61zm-40.013 0c-6.835-8.886-13.765-13.457-20.8-13.457-7.033 0-13.963 4.571-20.798 13.457l.792.61c6.767-8.797 13.439-13.067 20.007-13.067 6.568 0 13.24 4.27 20.006 13.067l.793-.61zm-41.598 0c-6.767 8.797-13.439 13.067-20.007 13.067-6.568 0-13.24-4.27-20.007-13.067l-.792.61c6.835 8.886 13.765 13.457 20.799 13.457 7.034 0 13.964-4.571 20.8-13.457l-.793-.61zm-40.014 0c-6.835-8.886-13.765-13.457-20.799-13.457-7.034 0-13.964 4.571-20.8 13.457l.793.61C.163 74.838 6.835 70.568 13.403 70.568c6.568 0 13.24 4.27 20.007 13.067l.792-.61zm-31.933.239c6.74-8.761 13.304-12.908 19.687-12.908v-1c-6.848 0-13.67 4.447-20.48 13.298l.793.61zm19.687-12.908c6.384 0 12.948 4.143 19.688 12.907l.793-.61c-6.81-8.854-13.632-13.297-20.48-13.297v1zm19.688 12.908c6.862 8.92 13.901 13.616 21.125 13.616v-1c-6.759 0-13.539-4.396-20.332-13.226l-.793.61zM62.769 96.88c7.224 0 14.262-4.696 21.125-13.616l-.793-.61C76.308 91.484 69.527 95.88 62.77 95.88v1zm21.125-13.616c6.74-8.761 13.304-12.908 19.687-12.908v-1c-6.848 0-13.67 4.447-20.48 13.298l.793.61zm19.687-12.908c6.384 0 12.948 4.143 19.688 12.907l.793-.61c-6.81-8.854-13.632-13.297-20.481-13.297v1zm19.688 12.908c6.862 8.92 13.901 13.616 21.125 13.616v-1c-6.759 0-13.539-4.396-20.332-13.226l-.793.61zm21.125 13.616c7.224 0 14.262-4.696 21.125-13.616l-.793-.61c-6.793 8.83-13.574 13.226-20.332 13.226v1zm21.125-13.616c6.74-8.761 13.304-12.908 19.687-12.908v-1c-6.848 0-13.67 4.447-20.48 13.298l.793.61zm19.687-12.908c6.384 0 12.948 4.143 19.688 12.907l.793-.61c-6.81-8.854-13.632-13.297-20.481-13.297v1zm19.688 12.908c6.862 8.92 13.901 13.616 21.125 13.616v-1c-6.759 0-13.539-4.396-20.332-13.226l-.793.61zm21.125 13.616c7.224 0 14.263-4.696 21.125-13.616l-.793-.61c-6.793 8.83-13.574 13.226-20.332 13.226v1zm21.125-13.617c6.74-8.764 13.304-12.907 19.687-12.907v-1c-6.848 0-13.67 4.443-20.48 13.298l.793.61zm19.687-12.907c6.384 0 12.948 4.143 19.684 12.907l.793-.609c-6.806-8.855-13.628-13.298-20.477-13.298v1zm19.684 12.908c6.866 8.92 13.905 13.616 21.129 13.616v-1c-6.759 0-13.539-4.396-20.337-13.226l-.792.61zm21.129 13.616c7.224 0 14.238-4.697 21.124-13.616l-.791-.61c-6.819 8.83-13.575 13.226-20.333 13.226v1zm21.125-13.617c6.74-8.764 13.304-12.907 19.687-12.907v-1c-6.848 0-13.67 4.443-20.48 13.298l.793.61zm19.687-12.907c6.384 0 12.948 4.143 19.684 12.907l.793-.609c-6.806-8.855-13.628-13.298-20.477-13.298v1zm19.684 12.908c6.866 8.92 13.905 13.616 21.129 13.616v-1c-6.759 0-13.539-4.396-20.337-13.226l-.792.61zm21.129 13.616c7.224 0 14.238-4.697 21.124-13.616l-.791-.61c-6.819 8.83-13.575 13.226-20.333 13.226v1zm21.125-13.617c6.74-8.764 13.304-12.907 19.687-12.907v-1c-6.848 0-13.67 4.443-20.48 13.298l.793.61zm19.687-12.907c6.384 0 12.948 4.143 19.684 12.907l.793-.609c-6.806-8.855-13.628-13.298-20.477-13.298v1zm19.684 12.908c6.866 8.92 13.905 13.616 21.129 13.616v-1c-6.759 0-13.539-4.396-20.337-13.226l-.792.61zm21.129 13.616c7.224 0 14.258-4.697 21.125-13.616l-.793-.61c-6.797 8.83-13.574 13.226-20.332 13.226v1zm21.125-13.617c6.74-8.764 13.304-12.907 19.687-12.907v-1c-6.848 0-13.67 4.443-20.48 13.298l.793.61zm19.687-12.907c6.384 0 12.948 4.143 19.684 12.907l.793-.609c-6.806-8.855-13.628-13.298-20.477-13.298v1zm19.684 12.908c6.866 8.92 13.905 13.616 21.129 13.616v-1c-6.759 0-13.539-4.396-20.337-13.226l-.792.61zm21.129 13.616c7.224 0 14.238-4.697 21.124-13.616l-.791-.61c-6.819 8.83-13.575 13.226-20.333 13.226v1zm21.125-13.617c6.74-8.764 13.304-12.907 19.687-12.907v-1c-6.848 0-13.67 4.443-20.48 13.298l.793.61zm19.687-12.907c6.384 0 12.948 4.143 19.684 12.907l.793-.609c-6.806-8.855-13.628-13.298-20.477-13.298v1zm19.684 12.908c6.866 8.92 13.905 13.616 21.129 13.616v-1c-6.759 0-13.539-4.396-20.337-13.226l-.792.61zm21.129 13.616c7.224 0 14.258-4.697 21.125-13.616l-.793-.61c-6.797 8.83-13.574 13.226-20.332 13.226v1zm21.229-13.921V1h-1v81.959h1zM654.873.5h-653v1h653v-1zM1.373 1V82.96h1V1h-1z" fill="#fff"/></svg>