<svg width="643" height="98" fill="none" xmlns="http://www.w3.org/2000/svg"><path fill-rule="evenodd" clip-rule="evenodd" d="M633 14.633c-6.775 8.806-13.468 13.103-20.084 13.103s-13.309-4.293-20.084-13.103c-6.828-8.875-13.737-13.42-20.728-13.42-6.992-.001-13.901 4.545-20.729 13.42-6.775 8.806-13.468 13.103-20.084 13.103s-13.309-4.293-20.084-13.103c-6.828-8.875-13.737-13.42-20.728-13.42-6.991-.001-13.901 4.545-20.729 13.42-6.775 8.806-13.468 13.103-20.084 13.103-6.615 0-13.309-4.293-20.084-13.103-6.828-8.875-13.737-13.42-20.728-13.42-6.991-.001-13.901 4.545-20.729 13.42-6.775 8.81-13.468 13.103-20.084 13.103s-13.309-4.293-20.08-13.103c-6.832-8.875-13.741-13.42-20.732-13.42-6.992-.001-13.877 4.545-20.729 13.42-6.775 8.81-13.468 13.103-20.084 13.103s-13.309-4.293-20.08-13.103c-6.832-8.875-13.741-13.42-20.732-13.42-6.992-.001-13.877 4.545-20.729 13.42-6.775 8.81-13.468 13.103-20.084 13.103s-13.309-4.293-20.08-13.103c-6.832-8.875-13.741-13.42-20.732-13.42-6.991-.001-13.897 4.545-20.729 13.42-6.775 8.81-13.468 13.103-20.084 13.103s-13.309-4.293-20.08-13.103c-6.832-8.875-13.741-13.42-20.732-13.42-6.992-.001-13.877 4.545-20.729 13.42-6.775 8.81-13.468 13.103-20.084 13.103-6.615 0-13.309-4.293-20.08-13.103C14.63 5.758 7.72 1.213.73 1.213-6.263 1.211-13.168 5.757-20 14.632v81.959h653V14.633z" fill="#fff"/><path d="m29.783 14.262.397-.305-.397.305zm40.806 0 .397.305-.397-.305zm81.612 0 .396.305-.396-.305zm81.612 0 .396.305-.396-.305zM633 14.633h.5v-1.47l-.896 1.165.396.305zm-40.168 0 .397-.305-.397.305zm-41.457 0 .396.305-.396-.305zm-40.168 0 .397-.305-.397.305zm-41.457 0 .396.305-.396-.305zm-40.168 0 .397-.305-.397.305zm-41.457 0-.396-.305.396.305zm-40.164 0 .397-.305-.397.305zm-41.461 0-.396-.305.396.305zm-40.164 0 .397-.305-.397.305zm-41.461 0-.396-.305.396.305zm-40.164 0 .397-.305-.397.305zm-41.461 0-.396-.305.396.305zm-40.164 0 .397-.305-.397.305zm-41.461 0-.396-.305.396.305zm-40.164 0 .397-.305-.397.305zm-41.461 0-.396-.305-.104.135v.17h.5zm0 81.959h-.5v.5h.5v-.5zm653 0v.5h.5v-.5h-.5zM-10.626 14.567C-3.86 5.77 2.812 1.5 9.38 1.5c6.569 0 13.24 4.27 20.007 13.067l.793-.61C23.344 5.071 16.414.5 9.38.5 2.347.5-4.584 5.071-11.419 13.957l.793.61zm40.013 0c6.835 8.886 13.766 13.457 20.8 13.457 7.033 0 13.963-4.571 20.799-13.457l-.793-.61c-6.767 8.797-13.438 13.067-20.007 13.067-6.568 0-13.24-4.27-20.006-13.067l-.793.61zm41.599 0C77.752 5.77 84.424 1.5 90.992 1.5c6.569 0 13.24 4.27 20.007 13.067l.793-.61C104.956 5.071 98.026.5 90.992.5c-7.034 0-13.964 4.571-20.8 13.457l.794.61zm40.013 0c6.835 8.886 13.765 13.457 20.799 13.457 7.034 0 13.964-4.571 20.799-13.457l-.792-.61c-6.767 8.797-13.439 13.067-20.007 13.067-6.568 0-13.24-4.27-20.006-13.067l-.793.61zm41.598 0C159.364 5.77 166.036 1.5 172.604 1.5c6.568 0 13.24 4.27 20.007 13.067l.792-.61C186.568 5.071 179.638.5 172.604.5c-7.034 0-13.964 4.571-20.799 13.457l.792.61zm40.014 0c6.835 8.886 13.765 13.457 20.799 13.457 7.034 0 13.964-4.571 20.799-13.457l-.792-.61c-6.767 8.797-13.439 13.067-20.007 13.067-6.568 0-13.24-4.27-20.007-13.067l-.792.61zm41.598 0C240.976 5.77 247.648 1.5 254.216 1.5c6.568 0 13.24 4.27 20.007 13.067l.792-.61C268.18 5.071 261.25.5 254.216.5c-7.034 0-13.964 4.571-20.799 13.457l.792.61zm40.014 0c6.835 8.886 13.765 13.457 20.799 13.457 7.034 0 13.964-4.571 20.799-13.457l-.792-.61c-6.767 8.797-13.439 13.067-20.007 13.067-6.568 0-13.24-4.27-20.007-13.067l-.792.61zm41.598 0C322.588 5.77 329.26 1.5 335.828 1.5c6.568 0 13.24 4.27 20.007 13.067l.792-.61C349.792 5.071 342.862.5 335.828.5c-7.034 0-13.964 4.571-20.799 13.457l.792.61zm40.014 0c6.835 8.886 13.765 13.457 20.799 13.457 7.034 0 13.964-4.571 20.799-13.457l-.792-.61c-6.767 8.797-13.439 13.067-20.007 13.067-6.568 0-13.24-4.27-20.007-13.067l-.792.61zm41.598 0C404.2 5.77 410.872 1.5 417.44 1.5c6.568 0 13.24 4.27 20.007 13.067l.792-.61C431.404 5.071 424.474.5 417.44.5c-7.034 0-13.964 4.571-20.799 13.457l.792.61zm40.014 0c6.835 8.886 13.765 13.457 20.799 13.457 7.034 0 13.964-4.571 20.799-13.457l-.792-.61c-6.767 8.797-13.439 13.067-20.007 13.067-6.568 0-13.24-4.27-20.007-13.067l-.792.61zm41.598 0C485.812 5.77 492.484 1.5 499.052 1.5c6.568 0 13.24 4.27 20.006 13.067l.793-.61C513.016 5.071 506.085.5 499.052.5c-7.034 0-13.964 4.571-20.799 13.457l.792.61zm40.013 0c6.836 8.886 13.766 13.457 20.8 13.457 7.033 0 13.964-4.571 20.799-13.457l-.793-.61c-6.766 8.797-13.438 13.067-20.006 13.067-6.569 0-13.24-4.27-20.007-13.067l-.793.61zm41.599 0C567.424 5.77 574.095 1.5 580.664 1.5c6.568 0 13.24 4.27 20.006 13.067l.793-.61C594.628 5.071 587.697.5 580.664.5c-7.034 0-13.964 4.571-20.8 13.457l.793.61zm40.013 0c6.836 8.886 13.766 13.457 20.8 13.457 7.033 0 13.963-4.571 20.799-13.457l-.793-.61c-6.766 8.797-13.438 13.067-20.006 13.067-6.569 0-13.241-4.27-20.007-13.067l-.793.61zm31.934-.239c-6.741 8.761-13.305 12.908-19.688 12.908v1c6.849 0 13.671-4.447 20.48-13.298l-.792-.61zm-19.688 12.908c-6.383 0-12.947-4.143-19.687-12.908l-.793.61c6.809 8.855 13.632 13.298 20.48 13.298v-1zm-19.687-12.908C586.366 5.408 579.328.712 572.104.712v1c6.758 0 13.539 4.395 20.332 13.226l.793-.61zM572.104.712c-7.224 0-14.263 4.696-21.125 13.616l.792.61c6.794-8.83 13.574-13.226 20.333-13.226v-1zm-21.125 13.616c-6.741 8.761-13.305 12.908-19.688 12.908v1c6.849 0 13.671-4.447 20.48-13.298l-.792-.61zm-19.688 12.908c-6.383 0-12.947-4.143-19.687-12.908l-.793.61c6.809 8.855 13.632 13.298 20.48 13.298v-1zm-19.687-12.908C504.741 5.408 497.703.712 490.479.712v1c6.758 0 13.539 4.395 20.332 13.226l.793-.61zM490.479.712c-7.224 0-14.263 4.696-21.125 13.616l.792.61c6.794-8.83 13.574-13.226 20.333-13.226v-1zm-21.125 13.616c-6.741 8.761-13.305 12.908-19.688 12.908v1c6.849 0 13.671-4.447 20.48-13.298l-.792-.61zm-19.688 12.908c-6.383 0-12.947-4.143-19.687-12.908l-.793.61c6.809 8.855 13.632 13.298 20.48 13.298v-1zm-19.687-12.908C423.116 5.408 416.078.712 408.854.712v1c6.758 0 13.539 4.395 20.332 13.226l.793-.61zM408.854.712c-7.224 0-14.263 4.696-21.125 13.616l.792.61c6.794-8.83 13.574-13.226 20.333-13.226v-1zm-21.125 13.616c-6.741 8.765-13.305 12.908-19.688 12.908v1c6.848 0 13.671-4.443 20.48-13.298l-.792-.61zm-19.688 12.908c-6.383 0-12.947-4.143-19.683-12.908l-.793.61c6.806 8.855 13.628 13.298 20.476 13.298v-1zm-19.683-12.908C341.491 5.408 334.453.712 327.229.712v1c6.758 0 13.539 4.395 20.336 13.226l.793-.61zM327.229.712c-7.225 0-14.239 4.697-21.125 13.616l.792.61c6.819-8.831 13.575-13.226 20.333-13.226v-1zm-21.125 13.616c-6.741 8.765-13.305 12.908-19.688 12.908v1c6.848 0 13.671-4.443 20.48-13.298l-.792-.61zm-19.688 12.908c-6.383 0-12.947-4.143-19.683-12.908l-.793.61c6.805 8.855 13.628 13.298 20.476 13.298v-1zm-19.683-12.908C259.866 5.408 252.828.712 245.604.712v1c6.758 0 13.539 4.395 20.336 13.226l.793-.61zM245.604.712c-7.225 0-14.239 4.697-21.125 13.616l.792.61c6.819-8.831 13.575-13.226 20.333-13.226v-1zm-21.125 13.616c-6.741 8.765-13.305 12.908-19.688 12.908v1c6.848 0 13.671-4.443 20.48-13.298l-.792-.61zm-19.688 12.908c-6.383 0-12.947-4.143-19.683-12.908l-.793.61c6.805 8.855 13.628 13.298 20.476 13.298v-1zm-19.683-12.908C178.241 5.408 171.203.712 163.979.712v1c6.758 0 13.539 4.395 20.336 13.226l.793-.61zM163.979.712c-7.224 0-14.259 4.696-21.125 13.616l.792.61c6.798-8.83 13.574-13.226 20.333-13.226v-1zm-21.125 13.616c-6.741 8.765-13.305 12.908-19.688 12.908v1c6.848 0 13.671-4.443 20.48-13.298l-.792-.61zm-19.688 12.908c-6.383 0-12.947-4.143-19.683-12.908l-.793.61c6.805 8.855 13.628 13.298 20.476 13.298v-1zm-19.683-12.908C96.616 5.408 89.577.712 82.353.712v1c6.76 0 13.54 4.395 20.337 13.226l.793-.61zM82.353.712c-7.224 0-14.238 4.697-21.124 13.616l.792.61C68.84 6.108 75.596 1.713 82.354 1.713v-1zM61.23 14.328c-6.74 8.765-13.305 12.908-19.688 12.908v1c6.848 0 13.67-4.443 20.48-13.298l-.792-.61zM41.54 27.236c-6.383 0-12.947-4.143-19.683-12.908l-.793.61c6.805 8.855 13.628 13.298 20.476 13.298v-1zM21.858 14.328C14.99 5.408 7.953.712.728.712v1c6.76 0 13.54 4.395 20.337 13.226l.793-.61zM.728.712c-7.223 0-14.258 4.696-21.124 13.616l.792.61C-12.806 6.108-6.03 1.712.73 1.712v-1zM-20.5 14.633v81.959h1V14.633h-1zm.5 82.459h653v-1H-20v1zm653.5-.5V14.633h-1v81.959h1z" fill="#fff"/></svg>