<svg id="Layer_1" data-name="Layer 1" xmlns="http://www.w3.org/2000/svg" viewBox="0 0 653 96.59"><defs><style>.cls-1{fill:#fff;}.cls-2{fill:none;stroke:#fff;stroke-miterlimit:10;}</style></defs><path class="cls-1" d="M652,15.9c-6.43,8-12.79,11.84-19.08,11.84-6.62,0-13.31-4.3-20.09-13.11S599.09,1.21,592.1,1.21s-13.9,4.55-20.72,13.42-13.47,13.11-20.09,13.11S538,23.44,531.21,14.63,517.47,1.21,510.48,1.21s-13.9,4.55-20.73,13.42-13.47,13.11-20.08,13.11-13.31-4.3-20.09-13.11S435.85,1.21,428.85,1.21,415,5.76,408.12,14.63,394.66,27.74,388,27.74,374.73,23.44,368,14.63,354.22,1.21,347.23,1.21,333.35,5.76,326.5,14.63,313,27.74,306.42,27.74s-13.31-4.3-20.08-13.11S272.6,1.21,265.6,1.21s-13.87,4.55-20.72,13.42-13.47,13.11-20.09,13.11-13.31-4.3-20.08-13.11S191,1.21,184,1.21s-13.9,4.55-20.73,13.42-13.47,13.11-20.08,13.11-13.31-4.3-20.08-13.11S109.35,1.21,102.35,1.21,88.48,5.76,81.62,14.63,68.16,27.74,61.54,27.74s-13.31-4.3-20.08-13.11S27.72,1.21,20.73,1.21,6.83,5.76,0,14.63v82H652Z" transform="translate(0.5 -0.5)"/><path class="cls-2" d="M9,14.26q20.4-26.52,40.8,0t40.81,0q20.4-26.52,40.81,0t40.8,0q20.4-26.52,40.81,0t40.8,0q20.42-26.52,40.81,0t40.8,0q20.41-26.52,40.81,0t40.81,0q20.4-26.52,40.8,0t40.81,0q20.4-26.52,40.81,0t40.8,0q20.4-26.52,40.81,0Q636.54,34.38,652,24m-19.08,3.75c6.29,0,12.65-3.89,19.08-11.84V96.59H0v-82C6.83,5.76,13.74,1.21,20.73,1.21s13.9,4.55,20.73,13.42S54.93,27.74,61.54,27.74s13.31-4.3,20.08-13.11S95.36,1.21,102.35,1.21s13.9,4.55,20.74,13.42,13.46,13.11,20.08,13.11,13.31-4.3,20.08-13.11S177,1.21,184,1.21s13.9,4.55,20.73,13.42,13.47,13.11,20.08,13.11,13.31-4.3,20.09-13.11S258.61,1.21,265.6,1.21s13.9,4.55,20.74,13.42,13.46,13.11,20.08,13.11,13.31-4.3,20.08-13.11S340.24,1.21,347.23,1.21,361.13,5.76,368,14.63,381.42,27.74,388,27.74s13.31-4.3,20.08-13.11S421.86,1.21,428.85,1.21s13.9,4.55,20.73,13.42,13.47,13.11,20.09,13.11,13.31-4.3,20.08-13.11S503.49,1.21,510.48,1.21s13.9,4.55,20.73,13.42,13.46,13.11,20.08,13.11,13.31-4.3,20.09-13.11S585.11,1.21,592.1,1.21,606,5.76,612.83,14.63,626.3,27.74,632.92,27.74Z" transform="translate(0.5 -0.5)"/></svg>